<?xml version="1.0" standalone="no"?>
<!DOCTYPE svg PUBLIC "-//W3C//DTD SVG 20010904//EN"
 "http://www.w3.org/TR/2001/REC-SVG-20010904/DTD/svg10.dtd">
<svg version="1.0" xmlns="http://www.w3.org/2000/svg"
 width="224.000000pt" height="224.000000pt" viewBox="0 0 224.000000 224.000000"
 preserveAspectRatio="xMidYMid meet">

<g transform="translate(0.000000,224.000000) scale(0.100000,-0.100000)"
fill="#000000" stroke="none">
<path d="M955 2209 c-305 -44 -591 -227 -762 -487 -112 -170 -170 -350 -180
-558 -9 -195 24 -358 112 -540 137 -283 401 -499 712 -581 121 -31 319 -42
444 -23 278 40 546 200 720 429 69 91 154 267 186 386 26 92 28 114 27 280 0
162 -3 190 -26 277 -149 548 -676 897 -1233 817z m365 -25 c546 -103 936 -620
880 -1167 -27 -266 -132 -490 -313 -671 -338 -337 -836 -418 -1262 -204 -309
155 -530 457 -585 800 -18 113 -8 341 20 443 50 185 138 342 264 473 169 175
359 282 586 327 93 19 311 18 410 -1z"/>
<path d="M1107 2132 c-9 -2 -14 -8 -11 -14 4 -5 1 -29 -6 -52 -25 -84 -25 -84
-49 -17 -20 55 -25 62 -44 57 -12 -3 -27 -6 -34 -6 -6 0 -14 -26 -18 -60 -4
-33 -10 -60 -14 -60 -7 0 -61 87 -61 100 0 4 6 11 13 13 6 3 -1 6 -18 6 -31 0
-123 -37 -94 -38 18 -1 59 -42 63 -62 1 -8 17 -29 35 -48 21 -23 31 -41 27
-54 -4 -17 -1 -18 26 -13 17 3 37 6 45 6 10 0 12 6 8 21 -4 12 -4 42 0 67 l8
47 23 -49 c12 -27 20 -55 17 -63 -4 -11 3 -14 33 -11 26 2 39 8 39 18 1 31 17
79 30 90 8 6 12 17 9 25 -6 14 22 76 38 86 12 8 -39 16 -65 11z"/>
<path d="M1304 2096 c-47 -21 -72 -71 -62 -125 18 -104 102 -127 176 -50 31
33 36 45 33 77 -4 49 -16 69 -54 92 -37 23 -51 24 -93 6z m84 -47 c2 -15 -4
-33 -12 -42 -9 -9 -14 -21 -11 -29 3 -7 1 -26 -3 -43 -6 -23 -14 -30 -33 -30
-29 0 -36 27 -18 71 12 29 14 39 17 82 2 19 7 23 30 20 21 -2 28 -9 30 -29z"/>
<path d="M622 2013 c-24 -14 -40 -29 -35 -32 14 -9 43 -54 43 -66 0 -6 -13
-18 -29 -28 l-29 -17 -22 37 c-17 29 -18 38 -8 44 7 5 8 9 2 9 -19 0 -107 -74
-93 -78 25 -8 59 -45 59 -64 0 -10 6 -18 14 -18 19 0 69 -67 60 -81 -4 -8 -1
-8 12 0 21 11 85 65 69 57 -14 -6 -25 2 -52 41 l-23 32 22 15 c12 9 27 16 33
16 14 -1 56 -70 49 -81 -3 -5 -2 -9 1 -9 10 0 85 40 85 46 0 3 -4 3 -10 -1
-10 -6 -50 64 -50 89 0 8 -6 19 -13 23 -18 11 -41 69 -32 82 10 17 -7 12 -53
-16z"/>
<path d="M1558 2014 c6 -3 12 -12 12 -19 0 -24 -23 -65 -36 -65 -8 0 -11 -6
-8 -15 8 -21 -35 -88 -52 -81 -26 10 -14 -4 26 -29 41 -26 66 -33 55 -15 -7
12 22 70 35 70 5 0 24 -9 42 -20 63 -38 118 -20 118 39 0 43 -97 116 -180 135
-14 3 -19 3 -12 0z m116 -70 c20 -7 21 -34 3 -59 -10 -13 -21 -16 -40 -11 -31
7 -34 22 -11 54 16 23 23 26 48 16z"/>
<path d="M348 1789 c-22 -20 -29 -32 -20 -36 12 -4 18 -103 7 -103 -19 0 -55
35 -50 48 4 12 1 12 -15 -3 -11 -10 -20 -23 -20 -28 0 -6 -6 -18 -14 -26 -7
-9 -17 -27 -21 -41 -6 -23 -6 -24 7 -7 13 18 15 18 46 0 17 -10 32 -23 32 -30
0 -7 6 -10 14 -7 21 8 88 -36 81 -54 -5 -12 -3 -13 10 -2 16 13 50 70 43 73
-61 30 -91 65 -47 54 85 -20 95 -20 107 9 7 14 11 28 10 29 -2 1 -24 8 -50 15
-27 7 -48 17 -48 22 0 5 -9 6 -20 3 -11 -3 -20 -5 -21 -3 -9 60 -9 91 1 103
22 26 2 16 -32 -16z"/>
<path d="M1884 1742 c-7 -10 -25 -16 -52 -16 -23 -1 -42 -5 -42 -9 0 -13 -90
-49 -108 -43 -11 4 -9 0 6 -13 12 -11 22 -24 22 -30 0 -15 11 -13 34 4 28 21
41 19 60 -10 13 -20 14 -28 4 -45 -7 -11 -18 -20 -25 -20 -19 0 -15 -11 12
-45 15 -17 25 -24 25 -16 0 19 49 71 67 71 7 0 13 7 13 15 0 8 13 29 30 47 25
28 31 31 40 18 7 -11 10 -11 10 -2 0 7 -11 23 -24 35 -13 12 -26 32 -30 44 -9
28 -30 35 -42 15z m-4 -70 c0 -5 -9 -17 -20 -27 -16 -15 -22 -15 -35 -5 -21
17 -19 28 8 33 39 7 47 7 47 -1z"/>
<path d="M1357 1714 c-58 -45 -108 -120 -138 -205 -19 -54 -23 -84 -22 -189 0
-76 6 -149 15 -187 17 -69 6 -84 -19 -26 -18 44 -63 250 -63 290 0 45 -10 19
-29 -74 -17 -80 -78 -249 -87 -240 -2 2 3 41 11 88 20 115 19 211 -5 304 -25
97 -58 156 -123 218 -57 55 -75 60 -47 15 96 -156 89 -548 -11 -644 -35 -33
-61 -26 -86 24 -16 33 -18 63 -18 269 0 199 -2 229 -13 207 -22 -41 -39 -160
-46 -314 -11 -221 -29 -261 -82 -182 -34 50 -47 147 -43 330 4 156 3 162 -13
142 -34 -42 -50 -121 -58 -291 -4 -92 -13 -176 -19 -188 -15 -27 -36 -17 -84
39 -56 65 -71 152 -42 235 8 21 13 41 11 43 -7 7 -79 -86 -111 -143 -68 -123
-79 -222 -35 -323 25 -56 124 -159 214 -220 128 -89 181 -107 227 -80 17 11
22 10 37 -8 9 -12 29 -24 44 -26 23 -4 27 -1 30 24 3 16 1 31 -2 33 -18 11
-16 57 1 79 11 13 19 29 19 35 0 6 9 15 20 21 32 17 24 36 -38 100 -42 44 -65
60 -84 60 -31 0 -46 17 -23 26 11 5 13 10 5 19 -9 10 -7 16 7 23 25 13 67 -3
59 -23 -3 -9 3 -19 17 -26 12 -7 45 -32 74 -56 44 -38 55 -43 72 -33 38 20 82
-21 61 -59 -5 -10 -7 -26 -4 -37 7 -31 -10 -45 -62 -50 -27 -3 -60 -7 -74 -10
-38 -8 -13 10 48 34 29 12 59 19 67 16 17 -7 21 11 5 21 -6 4 -5 13 2 24 6 10
8 26 5 35 -7 19 -53 22 -59 4 -3 -8 -25 5 -58 35 -29 26 -66 55 -81 64 -16 10
-29 21 -29 25 0 13 -20 9 -36 -7 -14 -13 -13 -15 10 -15 35 0 146 -110 146
-144 0 -14 -15 -39 -35 -60 -35 -37 -44 -73 -24 -93 7 -7 9 -26 4 -51 l-6 -40
-41 11 c-22 5 -42 16 -45 24 -4 10 -15 12 -42 7 -54 -10 -58 -21 -10 -29 24
-4 68 -21 97 -38 64 -35 72 -31 100 53 24 69 40 80 87 57 20 -9 47 -17 60 -17
14 0 33 -9 42 -19 16 -19 17 -19 54 1 59 30 57 39 -8 37 -46 -2 -70 3 -115 25
-32 15 -58 32 -58 37 0 12 17 11 26 -2 15 -24 98 -50 156 -48 32 1 61 -1 64
-4 11 -11 -15 -35 -63 -59 -42 -21 -46 -21 -57 -6 -13 18 -80 39 -130 42 -26
1 -30 -4 -47 -53 -11 -30 -17 -56 -15 -58 14 -15 182 -35 291 -35 213 -1 386
37 560 124 304 151 435 332 380 524 -18 63 -82 173 -140 239 l-35 40 21 -55
c24 -64 22 -155 -4 -207 -22 -42 -75 -93 -97 -93 -24 0 -30 19 -30 105 0 181
-35 362 -77 397 -14 11 -15 10 -9 -10 13 -39 10 -323 -3 -384 -20 -92 -77
-158 -96 -111 -4 10 -11 90 -16 178 -11 195 -24 285 -48 339 -18 41 -18 40
-13 -174 4 -181 2 -225 -12 -273 -45 -153 -141 -54 -168 172 -19 160 10 341
67 425 13 20 23 36 21 36 -1 0 -24 -16 -49 -36z m-7 -834 c27 -27 25 -56 -5
-85 -13 -14 -21 -25 -18 -25 13 0 -25 -35 -66 -62 -54 -34 -74 -37 -38 -5 40
34 81 62 90 59 4 -1 7 0 7 3 0 3 -15 11 -34 19 -39 16 -52 45 -35 78 23 44 66
51 99 18z"/>
<path d="M1272 878 c-7 -7 -12 -24 -12 -38 0 -53 57 -69 86 -25 15 23 15 27 0
50 -18 27 -54 33 -74 13z"/>
<path d="M125 894 c40 -177 96 -304 187 -425 134 -178 306 -296 535 -366 81
-24 102 -27 263 -27 182 -1 226 6 358 55 232 85 436 269 549 494 33 65 77 196
88 260 l7 40 -19 -26 c-143 -201 -396 -368 -660 -435 -475 -120 -981 42 -1275
410 -36 45 -39 47 -33 20z m225 -271 c-19 -13 -28 -43 -13 -43 4 0 17 10 30
21 l22 22 36 -27 c19 -15 35 -31 35 -36 0 -5 6 -7 13 -4 23 8 39 -20 27 -50
-11 -29 -4 -32 24 -11 29 22 36 19 36 -20 0 -40 -14 -45 -31 -13 -7 13 -14 18
-16 11 -3 -8 -16 -5 -43 9 -28 15 -37 25 -32 37 6 14 7 14 10 -1 2 -10 7 -18
11 -18 5 0 6 11 3 25 -2 14 -9 25 -14 25 -5 0 -6 5 -3 10 3 6 2 10 -3 10 -5 0
-15 -11 -22 -25 -10 -19 -16 -22 -27 -13 -11 9 -10 15 8 35 20 20 20 23 5 23
-9 0 -14 5 -11 10 11 18 -10 10 -28 -11 -20 -23 -35 -21 -51 4 -8 12 -7 22 1
37 12 18 10 19 -17 17 -17 -1 -30 -6 -30 -11 0 -5 -7 -3 -15 4 -13 11 -12 16
8 39 l22 28 42 -36 c41 -33 41 -35 23 -48z m1630 57 c0 -5 7 -10 15 -10 22 0
18 -11 -12 -38 l-27 -23 -25 26 c-25 24 -25 25 -6 40 23 17 55 20 55 5z m-74
-58 c1 -7 2 -18 3 -24 1 -10 3 -10 10 1 6 9 11 10 15 3 4 -6 -5 -19 -19 -28
-25 -16 -27 -16 -41 5 -15 21 -41 31 -28 9 4 -7 3 -8 -4 -4 -17 10 -15 -5 3
-31 13 -18 13 -22 0 -27 -9 -3 -19 3 -26 15 -6 12 -17 18 -26 15 -29 -11 -8
13 42 49 49 35 69 39 71 17z m-106 -126 c0 -2 -17 0 -37 5 -21 4 -40 8 -43 8
-2 0 -6 4 -8 10 -2 6 8 11 22 11 14 0 25 3 25 8 -4 25 4 23 21 -6 11 -18 20
-34 20 -36z m-100 3 c0 -5 -6 -7 -12 -3 -9 6 -9 3 0 -9 8 -9 10 -22 6 -29 -6
-10 -3 -9 9 1 11 8 17 9 17 3 0 -6 -10 -16 -21 -23 -22 -12 -25 -10 -49 33 -8
13 -6 20 7 27 23 14 43 14 43 0z m54 -31 c-4 -6 -10 -5 -15 3 -14 22 -10 33 6
19 8 -7 12 -17 9 -22z m-1130 6 c-1 -5 -5 -19 -9 -31 -5 -17 -2 -23 9 -23 9 0
16 -4 16 -9 0 -11 -57 6 -65 19 -3 4 2 13 10 20 8 7 15 19 15 27 0 8 6 13 13
10 6 -2 11 -8 11 -13z m1012 -5 c4 -7 0 -9 -14 -5 -26 9 -36 -8 -22 -34 9 -17
14 -19 33 -8 20 10 21 10 8 -6 -17 -20 -50 -17 -65 6 -8 13 -6 22 8 37 21 23
41 27 52 10z m-904 -64 c4 -36 -17 -51 -28 -20 -4 11 -13 13 -27 9 -17 -5 -15
-1 8 19 17 15 33 27 36 27 4 0 9 -16 11 -35z m788 25 c0 -5 -9 -10 -21 -10
-15 0 -20 -5 -17 -22 3 -22 28 -39 28 -18 0 6 -4 8 -10 5 -5 -3 -10 -2 -10 3
0 16 38 21 44 6 7 -19 -30 -37 -60 -30 -42 11 -28 57 21 69 11 2 21 5 23 6 1
0 2 -3 2 -9z m-726 -15 c8 -8 21 -13 29 -10 8 4 14 0 14 -10 0 -8 -4 -15 -9
-15 -4 0 -8 -7 -8 -15 0 -23 -14 -18 -32 13 -17 26 -17 26 -18 5 0 -13 -4 -23
-9 -23 -6 0 -6 12 -1 29 4 16 6 32 2 35 -3 3 0 6 6 6 6 0 17 -7 26 -15z m650
-34 c5 -27 3 -32 -9 -27 -8 3 -23 9 -32 13 -12 5 -15 2 -10 -10 3 -9 2 -19 -3
-22 -6 -4 -10 5 -10 19 0 14 -4 27 -8 30 -5 3 -8 -8 -7 -24 2 -39 -20 -39 -33
0 -10 27 -9 30 14 36 13 3 35 4 49 2 15 -3 26 0 30 10 7 19 11 14 19 -27z
m-536 -13 c3 -29 -23 -44 -57 -33 -19 6 -19 10 -6 51 10 32 59 18 63 -18z m98
12 c8 0 14 -5 14 -11 0 -5 -4 -7 -10 -4 -8 5 -15 -21 -12 -46 1 -4 -7 -5 -17
-2 -13 3 -16 12 -13 35 4 23 2 29 -8 23 -9 -6 -11 -4 -6 4 5 7 15 10 23 7 8
-3 21 -6 29 -6z m307 -22 c6 -42 4 -43 -27 -23 -25 17 -26 17 -27 -6 -1 -16
-4 -13 -8 11 -7 39 8 51 36 28 15 -11 16 -11 10 5 -3 9 -3 17 2 17 5 0 11 -15
14 -32z m-226 14 c6 -4 11 -16 10 -26 -3 -32 18 -28 34 5 l15 32 22 -34 c18
-28 19 -35 6 -37 -8 -2 -21 2 -29 8 -11 9 -15 9 -15 1 0 -7 -20 -11 -50 -11
l-50 0 0 35 c0 30 3 35 23 35 12 0 27 -4 34 -8z m145 -27 c3 -27 0 -35 -12
-35 -11 0 -17 11 -18 35 -2 25 2 35 12 35 8 0 15 -13 18 -35z m-634 4 c-7 -5
-10 -9 -5 -10 41 -8 58 -21 47 -35 -14 -16 -40 -7 -40 13 0 8 -4 12 -9 9 -12
-8 -41 4 -41 16 0 6 8 4 17 -3 11 -10 14 -10 9 -1 -10 17 2 32 20 25 13 -5 13
-7 2 -14z m1076 -5 c4 -11 1 -14 -11 -12 -9 2 -18 9 -21 16 -6 18 25 15 32 -4z
m-27 -21 c4 -12 -25 -26 -38 -17 -5 3 -9 10 -9 16 0 6 6 6 15 -2 13 -11 14
-10 9 5 -5 12 -3 16 6 13 8 -2 15 -9 17 -15z m-933 -60 c-10 -7 -25 -13 -33
-12 -11 0 -12 2 -3 6 6 2 12 12 12 20 0 11 -7 14 -27 8 -23 -5 -25 -4 -14 9
11 13 16 13 47 -2 32 -15 34 -17 18 -29z m881 36 c4 -6 4 -13 0 -17 -3 -3 -10
0 -15 8 -6 8 -10 10 -10 5 0 -6 5 -16 12 -23 7 -7 8 -12 2 -12 -6 0 -19 9 -28
19 -13 15 -14 20 -4 24 22 9 36 8 43 -4z m-55 -24 c10 -12 8 -16 -15 -25 -35
-13 -73 -4 -55 13 10 9 14 9 17 0 3 -7 9 -13 15 -13 6 0 8 6 5 14 -3 8 -1 17
6 20 7 2 13 5 13 5 1 1 7 -6 14 -14z m-774 -16 c3 -6 1 -16 -5 -22 -8 -8 -11
-8 -11 1 0 7 -7 9 -17 5 -16 -6 -16 -5 -4 10 16 20 27 22 37 6z m49 -11 c4 4
6 0 3 -8 -8 -25 -38 -25 -38 0 0 18 3 20 13 11 8 -6 17 -7 22 -3z m616 0 c0
-10 2 -10 6 -1 3 10 8 10 19 -1 18 -19 18 -30 -1 -22 -8 3 -15 0 -15 -6 0 -12
-29 22 -30 35 0 13 20 8 21 -5z m-584 -23 c-4 -8 -11 -15 -17 -15 -7 0 -7 6 0
21 13 23 26 19 17 -6z m562 1 c9 -11 8 -15 -5 -20 -20 -8 -39 7 -30 23 10 15
21 14 35 -3z m-513 -7 c3 -6 1 -16 -5 -22 -8 -8 -11 -6 -11 9 0 15 -2 16 -10
4 -5 -8 -12 -11 -15 -8 -10 10 4 28 20 28 8 0 17 -5 21 -11z m461 -15 c2 -10
0 -13 -3 -6 -3 6 -10 12 -15 12 -6 0 -7 -4 -4 -10 3 -5 1 -10 -4 -10 -6 0 -11
2 -11 4 0 2 -2 11 -5 19 -4 9 1 13 17 12 14 -1 24 -9 25 -21z m-409 -7 c2 -10
-3 -17 -12 -17 -18 0 -29 16 -21 31 9 14 29 6 33 -14z m355 9 c3 -8 3 -17 0
-20 -7 -7 -43 -8 -43 -2 0 2 -3 11 -6 20 -5 12 0 16 19 16 14 0 27 -6 30 -14z
m-309 -17 c-9 -11 -20 -19 -23 -19 -4 0 -7 8 -8 19 -1 13 5 19 23 19 24 0 24
-1 8 -19z m100 7 c7 3 13 -2 13 -10 0 -8 -9 -14 -19 -13 -11 1 -18 9 -17 22 0
11 3 15 5 8 3 -7 11 -10 18 -7z m99 0 c7 -17 -1 -26 -22 -26 -14 0 -14 2 -1
10 10 6 11 10 3 10 -7 0 -13 5 -13 10 0 15 27 12 33 -4z m-142 -11 c0 -5 -9
-11 -21 -13 -20 -3 -27 8 -13 22 10 9 34 3 34 -9z m173 -10 c-4 -8 -8 -15 -10
-15 -2 0 -4 7 -4 15 0 8 4 15 10 15 5 0 7 -7 4 -15z m-364 -15 c-10 -6 -11
-10 -2 -10 6 0 12 -4 12 -10 0 -5 -12 -10 -27 -9 -16 0 -23 3 -16 5 7 3 9 12
6 20 -3 10 2 14 18 14 19 0 21 -2 9 -10z m548 -16 c3 -18 2 -18 -12 -1 -10 13
-16 15 -21 6 -4 -6 -1 -15 6 -20 11 -7 11 -9 -2 -9 -9 0 -22 7 -29 15 -10 12
-8 16 11 24 31 13 43 9 47 -15z m-507 -11 c0 -11 3 -13 6 -5 7 17 23 15 23 -4
0 -22 -44 -14 -48 9 -2 9 1 17 7 17 6 0 11 -8 12 -17z m433 -15 c-3 -4 -12 -8
-20 -8 -17 0 -19 27 -1 33 14 5 28 -13 21 -25z m-346 -1 c2 -9 -1 -17 -7 -17
-6 0 -11 8 -11 18 0 14 -2 15 -10 2 -5 -8 -12 -11 -15 -8 -11 11 6 29 23 26 9
-2 18 -11 20 -21z m72 2 c0 -16 -5 -20 -27 -17 -33 4 -34 20 -1 30 13 3 24 6
26 7 1 1 2 -8 2 -20z m170 -5 c0 -8 -10 -14 -25 -14 -18 0 -25 5 -25 19 0 14
6 17 25 13 14 -2 25 -11 25 -18z m58 7 c3 -10 0 -12 -12 -8 -10 4 -15 3 -11
-3 3 -6 2 -10 -3 -10 -15 0 -21 11 -15 26 7 18 35 14 41 -5z m-169 -16 c3 -17
2 -18 -15 -5 -10 9 -15 10 -10 3 5 -9 2 -11 -8 -7 -19 7 -8 36 13 32 9 -2 17
-12 20 -23z m44 18 c-7 -2 -13 -11 -13 -19 0 -9 -4 -12 -10 -9 -19 12 -10 35
13 34 12 0 16 -3 10 -6z"/>
<path d="M296 672 c-3 -5 1 -9 9 -9 8 0 12 4 9 9 -3 4 -7 8 -9 8 -2 0 -6 -4
-9 -8z"/>
<path d="M485 530 c3 -5 8 -10 11 -10 2 0 4 5 4 10 0 6 -5 10 -11 10 -5 0 -7
-4 -4 -10z"/>
<path d="M866 731 c-3 -4 6 -6 19 -3 14 2 25 6 25 8 0 8 -39 4 -44 -5z"/>
</g>
</svg>
